<svg id="レイヤー_1" data-name="レイヤー 1" xmlns="http://www.w3.org/2000/svg" viewBox="0 0 36 36"><defs><style>.cls-1{fill:#bf6952;}.cls-2{fill:#664500;}</style></defs><title>unchi</title><path class="cls-1" d="M33.54,23.2a8.14,8.14,0,0,0-3.73-8.72,5.59,5.59,0,0,0-.32-3.75,6.26,6.26,0,0,0-4.71-3.56,2.91,2.91,0,0,0,0-2.17c-1-3-5-1-8-5a5.7,5.7,0,0,0-2.88,5.49,22.52,22.52,0,0,0-3.8.93h0a3.68,3.68,0,0,0-1.49,5.75L8,12.44H8a5.9,5.9,0,0,0-4,5.44,5.49,5.49,0,0,0,.82,2.88A8,8,0,0,0,0,28a8.12,8.12,0,0,0,8.24,8,31.28,31.28,0,0,0,9.54-1.67C20,35.37,23.47,36,28.67,36a7.32,7.32,0,0,0,4.87-12.8Z"/><ellipse class="cls-2" cx="11.99" cy="13.5" rx="2.5" ry="3.5"/><ellipse class="cls-2" cx="24.07" cy="13.5" rx="2.5" ry="3.5"/><path class="cls-2" d="M25,26H11a1,1,0,0,1,0-2H25a1,1,0,0,1,0,2Z"/></svg>